HIERARCHY
ROOT Hips
{
	OFFSET 0.000000 89.005402 0.000000
	CHANNELS 6 Xposition Yposition Zposition Xrotation Yrotation Zrotation
	JOINT Spine
	{
		OFFSET 0.116900 10.681000 0.373400
		CHANNELS 3 Xrotation Yrotation Zrotation
		JOINT Spine1
		{
			OFFSET 0.000000 13.840401 0.053500
			CHANNELS 3 Xrotation Yrotation Zrotation
			JOINT Spine2
			{
				OFFSET 0.000000 14.712700 -0.366200
				CHANNELS 3 Xrotation Yrotation Zrotation
				JOINT Neck
				{
					OFFSET 0.000000 35.415497 -3.314200
					CHANNELS 3 Xrotation Yrotation Zrotation
					JOINT Head
					{
						OFFSET 0.000000 16.899200 1.218300
						CHANNELS 3 Xrotation Yrotation Zrotation
						JOINT HeadTop_End
						{
							OFFSET 0.000000 22.206207 2.192500
							CHANNELS 3 Xrotation Yrotation Zrotation
							End Site
							{
								OFFSET 0.000000 22.314178 0.000000
							}
						}
					}
				}
				JOINT LeftShoulder
				{
					OFFSET 12.896400 26.716293 -4.548400
					CHANNELS 3 Xrotation Yrotation Zrotation
					JOINT LeftArm
					{
						OFFSET 19.027000 -4.857010 -1.718400
						CHANNELS 3 Xrotation Yrotation Zrotation
						JOINT LeftForeArm
						{
							OFFSET 24.179897 0.000000 0.000000
							CHANNELS 3 Xrotation Yrotation Zrotation
							JOINT LeftHand
							{
								OFFSET 27.156403 0.000000 0.000000
								CHANNELS 3 Xrotation Yrotation Zrotation
								JOINT LeftHandIndex1
								{
									OFFSET 16.441200 0.000000 0.000000
									CHANNELS 3 Xrotation Yrotation Zrotation
									JOINT LeftHandIndex2
									{
										OFFSET 4.821899 0.000000 0.000000
										CHANNELS 3 Xrotation Yrotation Zrotation
										JOINT LeftHandIndex3
										{
											OFFSET 6.386497 0.000000 0.000000
											CHANNELS 3 Xrotation Yrotation Zrotation
											JOINT LeftHandIndex4
											{
												OFFSET 5.188988 0.000000 0.000000
												CHANNELS 3 Xrotation Yrotation Zrotation
												End Site
												{
													OFFSET -0.178703 5.185913 0.000177
												}
											}
										}
									}
								}
								JOINT LeftHandThumb1
								{
									OFFSET 6.534897 -5.032593 5.900300
									CHANNELS 3 Xrotation Yrotation Zrotation
									JOINT LeftHandThumb2
									{
										OFFSET 3.818176 -2.204422 2.204423
										CHANNELS 3 Xrotation Yrotation Zrotation
										JOINT LeftHandThumb3
										{
											OFFSET 3.252098 -1.877594 1.877601
											CHANNELS 3 Xrotation Yrotation Zrotation
											JOINT LeftHandThumb4
											{
												OFFSET 5.251778 -3.032120 3.032117
												CHANNELS 3 Xrotation Yrotation Zrotation
												End Site
												{
													OFFSET 0.000023 6.780014 0.000000
												}
											}
										}
									}
								}
							}
						}
					}
				}
				JOINT RightShoulder
				{
					OFFSET -12.896300 26.716293 -4.548400
					CHANNELS 3 Xrotation Yrotation Zrotation
					JOINT RightArm
					{
						OFFSET -19.027000 -4.857010 -1.718400
						CHANNELS 3 Xrotation Yrotation Zrotation
						JOINT RightForeArm
						{
							OFFSET -24.179897 0.000000 0.000000
							CHANNELS 3 Xrotation Yrotation Zrotation
							JOINT RightHand
							{
								OFFSET -27.156403 0.000000 0.000000
								CHANNELS 3 Xrotation Yrotation Zrotation
								JOINT RightHandThumb1
								{
									OFFSET -6.591202 -4.852203 5.988100
									CHANNELS 3 Xrotation Yrotation Zrotation
									JOINT RightHandThumb2
									{
										OFFSET -3.818176 -2.204422 2.204423
										CHANNELS 3 Xrotation Yrotation Zrotation
										JOINT RightHandThumb3
										{
											OFFSET -3.252098 -1.877594 1.877601
											CHANNELS 3 Xrotation Yrotation Zrotation
											JOINT RightHandThumb4
											{
												OFFSET -5.251778 -3.032120 3.032117
												CHANNELS 3 Xrotation Yrotation Zrotation
												End Site
												{
													OFFSET -0.000023 6.780014 0.000000
												}
											}
										}
									}
								}
								JOINT RightHandIndex1
								{
									OFFSET -16.029404 0.000000 0.000000
									CHANNELS 3 Xrotation Yrotation Zrotation
									JOINT RightHandIndex2
									{
										OFFSET -5.213303 0.000000 0.000000
										CHANNELS 3 Xrotation Yrotation Zrotation
										JOINT RightHandIndex3
										{
											OFFSET -6.386528 0.000000 0.000000
											CHANNELS 3 Xrotation Yrotation Zrotation
											JOINT RightHandIndex4
											{
												OFFSET -5.189026 0.000000 0.000000
												CHANNELS 3 Xrotation Yrotation Zrotation
												End Site
												{
													OFFSET 0.236702 5.183624 0.001972
												}
											}
										}
									}
								}
							}
						}
					}
				}
			}
		}
	}
	JOINT LeftUpLeg
	{
		OFFSET 14.073000 -7.904099 -1.463000
		CHANNELS 3 Xrotation Yrotation Zrotation
		JOINT LeftLeg
		{
			OFFSET -0.109806 -34.073280 4.093200
			CHANNELS 3 Xrotation Yrotation Zrotation
			JOINT LeftFoot
			{
				OFFSET 0.109806 -29.899420 -6.319000
				CHANNELS 3 Xrotation Yrotation Zrotation
				JOINT LeftToeBase
				{
					OFFSET 1.551100 -14.988700 20.535801
					CHANNELS 3 Xrotation Yrotation Zrotation
					JOINT LeftToe_End
					{
						OFFSET 0.221200 0.570800 13.248301
						CHANNELS 3 Xrotation Yrotation Zrotation
						End Site
						{
							OFFSET 0.000000 13.262435 0.000000
						}
					}
				}
			}
		}
	}
	JOINT RightUpLeg
	{
		OFFSET -13.839300 -7.904099 -1.463000
		CHANNELS 3 Xrotation Yrotation Zrotation
		JOINT RightLeg
		{
			OFFSET 0.109694 -34.073219 4.093300
			CHANNELS 3 Xrotation Yrotation Zrotation
			JOINT RightFoot
			{
				OFFSET -0.109694 -29.899384 -6.319200
				CHANNELS 3 Xrotation Yrotation Zrotation
				JOINT RightToeBase
				{
					OFFSET -1.551100 -14.988700 20.535801
					CHANNELS 3 Xrotation Yrotation Zrotation
					JOINT RightToe_End
					{
						OFFSET -0.221200 0.570900 13.248299
						CHANNELS 3 Xrotation Yrotation Zrotation
						End Site
						{
							OFFSET 0.000000 13.262440 0.000000
						}
					}
				}
			}
		}
	}
}
MOTION
Frames: 9
Frame Time: 0.033333
-0.384431 71.819771 -0.075111 -5.398679 -46.211994 -0.238003 9.452229 7.171240 -1.616319 2.187715 0.989895 -0.915630 2.202829 0.982775 -0.894153 0.084654 13.220558 4.538679 8.920927 20.138145 -4.130235 0.000000 -0.000000 0.000000 1.117178 3.546348 -8.633310 -53.487020 4.935513 -51.502990 0.000060 -106.358046 0.000047 1.988598 -7.706150 -15.869248 0.255313 3.378218 -45.814348 5.654092 5.847761 -88.067462 2.162139 4.544815 -50.866376 -0.000002 -0.000000 0.000000 -6.141210 -11.690804 -6.761676 9.914128 42.595522 3.409837 -0.422812 8.108107 27.509118 0.000003 -0.000004 0.000002 3.036130 13.027203 -5.371407 -48.713712 27.172832 83.457064 0.000174 105.988273 -0.000173 -8.345362 17.548093 8.775673 -7.341106 13.749660 7.412340 9.855748 -44.489089 -3.903289 -0.115779 -14.513081 -28.973861 -0.000003 -0.000002 0.000001 -0.124374 -2.384782 45.108851 4.500586 -4.654539 88.071164 1.723224 -3.618382 50.920109 0.000000 0.000000 -0.000000 -31.861589 6.395816 19.963919 59.337658 -8.188236 3.970994 -25.244714 -6.905775 -16.448598 -1.594039 0.000007 -0.000007 0.000000 -0.000002 0.000000 -18.985679 -11.114267 -32.041223 59.474262 -5.223638 -6.736853 -30.568375 -9.909974 26.195541 -0.013010 -0.000012 0.000007 0.000000 0.000000 0.000000 
0.525860 71.354637 -0.598057 -6.332509 -46.709256 -0.677624 9.597775 6.909687 -0.996370 2.337212 0.729828 -0.821599 2.352778 0.739510 -0.801227 0.228982 13.350673 4.287416 9.765076 20.399130 -5.209638 -0.000000 0.000000 -0.000001 0.899002 4.477512 -8.609595 -52.004200 4.436795 -52.274730 0.000214 -105.893709 0.000211 2.558720 -8.016672 -15.796552 0.255310 3.378218 -45.814348 5.654093 5.847757 -88.067462 2.162140 4.544816 -50.866372 -0.000000 0.000001 -0.000002 -6.141210 -11.690804 -6.761679 9.914130 42.595522 3.409844 -0.422816 8.108102 27.509120 -0.000001 0.000001 0.000001 2.837513 11.716676 -5.142019 -47.377358 27.604097 82.128688 0.000243 104.604088 -0.000249 -8.904338 18.365673 9.260464 -7.341104 13.749656 7.412341 9.855750 -44.489089 -3.903288 -0.115786 -14.513083 -28.973861 0.000003 -0.000004 0.000002 -0.124372 -2.384783 45.108854 4.500584 -4.654542 88.071164 1.723224 -3.618382 50.920116 0.000001 -0.000002 -0.000002 -34.200967 6.422706 22.548905 61.772163 -8.397981 2.643570 -23.891756 -9.415561 -19.624535 -6.040981 -0.000007 -0.000008 0.000000 -0.000001 -0.000000 -21.032929 -10.791450 -33.531277 61.513490 -2.966922 -6.397295 -30.766833 -9.811130 24.742529 -0.012981 0.000015 -0.000008 -0.000000 -0.000000 -0.000000 
1.587993 71.352600 -0.876139 -6.789997 -47.428837 -1.089723 9.505540 6.571127 -0.355391 2.310017 0.399322 -0.715985 2.328240 0.420415 -0.696509 0.477340 13.453933 4.119562 10.891767 20.628177 -6.294856 0.000000 0.000000 0.000000 0.799861 4.768354 -8.454237 -51.620937 4.246450 -52.118400 0.000161 -106.440999 0.000153 2.953669 -7.422960 -15.936720 0.255311 3.378219 -45.814348 5.654094 5.847757 -88.067462 2.162139 4.544814 -50.866372 0.000001 0.000002 0.000001 -6.141210 -11.690801 -6.761677 9.914125 42.595519 3.409838 -0.422812 8.108101 27.509118 0.000001 0.000001 -0.000000 2.770925 10.651312 -4.713622 -47.567538 27.827253 80.734721 0.000070 103.139996 -0.000071 -9.765958 19.063442 9.388224 -7.341106 13.749659 7.412340 9.855747 -44.489093 -3.903289 -0.115779 -14.513083 -28.973861 0.000002 0.000002 -0.000003 -0.124374 -2.384783 45.108851 4.500583 -4.654542 88.071171 1.723224 -3.618381 50.920116 0.000001 0.000002 0.000002 -36.264893 6.321865 26.705527 62.472653 -9.763701 0.877283 -22.317414 -13.166492 -25.983880 -6.145884 0.000008 0.000004 -0.000000 -0.000001 0.000000 -22.969916 -10.626843 -34.588635 61.941777 -0.617571 -5.942230 -29.821026 -9.552850 23.138299 -0.013002 0.000009 -0.000002 0.000000 0.000000 -0.000000 
2.753824 71.822533 -1.010215 -6.734933 -48.230339 -1.214414 9.188238 6.187109 0.047048 2.100315 0.055625 -0.636009 2.122064 0.079377 -0.616635 0.782553 13.491820 4.057403 11.969270 20.683952 -7.015893 0.000001 -0.000000 0.000000 0.865410 4.304075 -8.257580 -52.407987 4.540225 -51.144299 0.000012 -107.858427 0.000007 3.243272 -6.342503 -15.246669 0.255315 3.378216 -45.814348 5.654095 5.847759 -88.067462 2.162136 4.544816 -50.866372 -0.000000 0.000001 0.000004 -6.141209 -11.690801 -6.761673 9.914125 42.595519 3.409841 -0.422812 8.108107 27.509118 -0.000003 -0.000001 0.000002 2.702756 9.746900 -4.423238 -49.135568 27.777427 79.919354 -0.000068 101.698723 0.000062 -10.855587 19.729293 9.237372 -7.341105 13.749659 7.412338 9.855735 -44.489096 -3.903286 -0.115782 -14.513083 -28.973861 -0.000003 0.000002 -0.000000 -0.124374 -2.384784 45.108854 4.500582 -4.654543 88.071164 1.723222 -3.618382 50.920112 0.000000 -0.000002 0.000001 -37.216376 6.034809 30.538995 60.032848 -10.647333 -0.486017 -19.558199 -17.807266 -31.713788 -3.991539 -0.001208 0.269186 0.000001 0.000002 -0.000000 -24.477945 -10.299323 -34.975889 60.793629 0.859487 -5.590919 -27.758445 -9.203438 22.101153 -0.013011 -0.000012 -0.000006 0.000000 -0.000000 0.000000 
3.975461 72.814583 -1.188297 -5.957494 -49.026036 -0.578787 8.740943 5.844805 0.018630 1.770132 -0.206872 -0.623177 1.794380 -0.191345 -0.602860 1.064637 13.449016 4.073100 12.561630 20.482267 -7.105827 -0.000001 0.000000 -0.000000 1.073776 3.266710 -8.098309 -54.058089 5.259243 -49.766353 0.000056 -109.694546 0.000066 3.438498 -5.374032 -13.155981 0.255312 3.378216 -45.814348 5.654091 5.847758 -88.067462 2.162137 4.544816 -50.866376 0.000000 0.000000 -0.000002 -6.141211 -11.690802 -6.761678 9.914128 42.595522 3.409842 -0.422810 8.108104 27.509120 -0.000002 0.000001 0.000001 2.488503 9.062677 -4.654116 -51.437543 27.331022 80.051135 0.000253 100.434974 -0.000265 -11.868412 20.407297 8.922820 -7.341106 13.749658 7.412338 9.855748 -44.489089 -3.903284 -0.115780 -14.513090 -28.973857 0.000001 -0.000002 0.000002 -0.124375 -2.384782 45.108857 4.500586 -4.654540 88.071164 1.723224 -3.618383 50.920112 0.000003 -0.000000 -0.000002 -36.728256 5.945368 32.182813 55.601295 -11.564832 -0.764492 -15.845506 -19.408126 -34.259174 -4.019325 -0.142956 2.934233 0.000000 0.000003 0.000001 -25.662125 -9.699560 -34.681850 58.167605 1.008326 -5.593102 -24.687029 -8.729423 21.827446 -0.012999 0.000010 -0.000003 -0.000000 -0.000000 0.000000 
5.239451 74.091644 -1.470955 -4.530492 -49.893241 0.796265 8.308937 5.668228 -0.393574 1.431271 -0.298228 -0.689752 1.455767 -0.299880 -0.667968 1.255948 13.353359 4.095731 12.414069 20.082839 -6.656870 -0.000000 0.000000 -0.000000 1.305911 2.169070 -7.977405 -55.881674 6.088968 -48.590174 0.000068 -111.378713 0.000061 3.486330 -4.924529 -10.392162 0.255312 3.378218 -45.814344 5.654092 5.847759 -88.067462 2.162136 4.544816 -50.866369 -0.000001 -0.000000 -0.000001 -6.141211 -11.690805 -6.761674 9.914119 42.595522 3.409842 -0.422812 8.108105 27.509120 -0.000000 -0.000001 -0.000000 2.131021 8.854339 -5.472961 -53.672897 26.487457 80.849701 0.000030 99.455348 -0.000011 -12.401235 21.002651 8.541809 -7.341107 13.749659 7.412336 9.855745 -44.489093 -3.903287 -0.115779 -14.513088 -28.973854 -0.000002 0.000003 -0.000001 -0.124374 -2.384781 45.108854 4.500585 -4.654541 88.071171 1.723223 -3.618384 50.920116 0.000004 -0.000001 -0.000000 -34.950717 6.384701 31.339917 52.595762 -11.663503 0.143268 -14.362681 -16.434345 -32.798176 -2.345904 -0.145504 2.984905 -0.000000 -0.000001 -0.000001 -26.838760 -8.842659 -33.965178 54.667741 0.253954 -5.993216 -21.011293 -8.054171 22.020371 -0.012998 0.000002 0.000009 -0.000000 -0.000001 0.000000 
6.475628 75.368332 -1.873276 -2.959259 -50.949055 2.381052 7.986444 5.728095 -1.045254 1.157688 -0.189493 -0.798967 1.180671 -0.211415 -0.776081 1.341863 13.251683 4.085932 11.672763 19.656492 -6.065809 -0.000001 0.000001 -0.000001 1.424194 1.540858 -7.821499 -57.182887 6.642615 -48.048199 -0.000051 -112.558362 -0.000040 3.263027 -4.938709 -8.516988 0.255313 3.378218 -45.814348 5.654092 5.847757 -88.067462 2.162137 4.544815 -50.866376 -0.000001 -0.000001 -0.000001 -6.141210 -11.690802 -6.761680 9.914125 42.595522 3.409843 -0.422811 8.108104 27.509118 -0.000000 0.000003 -0.000000 1.868510 9.352200 -6.410179 -55.530869 25.582569 81.641497 0.000225 98.673113 -0.000222 -12.328519 21.321655 8.185326 -7.341109 13.749658 7.412341 9.855741 -44.489096 -3.903293 -0.115778 -14.513085 -28.973861 0.000002 0.000001 -0.000001 -0.124378 -2.384779 45.108854 4.500587 -4.654542 88.071164 1.723224 -3.618382 50.920116 0.000001 0.000001 0.000003 -32.574921 7.157129 28.962560 50.606743 -10.759452 1.404123 -12.114428 -11.367994 -24.419762 -1.259057 -0.046167 1.706700 -0.000000 -0.000000 0.000000 -28.074586 -7.909303 -33.087827 51.019116 -0.564285 -6.548821 -17.288795 -7.220779 22.099569 -0.013000 -0.000003 0.000003 0.000000 0.000001 -0.000000 
7.863535 75.907394 -1.974160 -1.711419 -52.097616 3.509651 7.741025 6.021825 -1.562102 0.945024 0.071839 -0.889164 0.966196 0.033284 -0.866013 1.325864 13.166294 4.093883 10.762864 19.349026 -5.700775 -0.000000 -0.000000 0.000000 1.363296 1.619251 -7.577275 -57.552233 6.640309 -48.218110 0.000103 -113.078986 0.000108 2.659373 -5.157561 -8.418321 0.255313 3.378218 -45.814351 5.654092 5.847757 -88.067455 2.162139 4.544817 -50.866376 -0.000001 0.000002 0.000001 -6.141210 -11.690801 -6.761678 9.914125 42.595522 3.409841 -0.422810 8.108106 27.509118 -0.000001 0.000000 0.000001 1.973923 10.413256 -6.754946 -57.163325 25.132545 82.021788 0.000892 97.800789 -0.000900 -11.970961 21.294652 8.017534 -7.341108 13.749657 7.412337 9.855746 -44.489096 -3.903286 -0.115781 -14.513085 -28.973861 0.000002 -0.000001 0.000001 -0.124373 -2.384782 45.108854 4.500585 -4.654542 88.071164 1.723224 -3.618382 50.920116 0.000004 -0.000000 -0.000001 -30.340933 7.767997 26.519290 49.661308 -9.601767 2.690496 -10.038966 -6.462682 -17.825271 -6.434556 0.495122 -4.286711 -0.000000 0.000002 -0.000000 -29.611681 -6.772552 -32.648407 48.660262 -0.825984 -7.104404 -14.229714 -6.445739 22.410126 -0.013000 -0.000006 0.000000 -0.000000 -0.000000 0.000000 
9.353840 75.550858 -1.672211 -0.879531 -53.029165 4.155955 7.519737 6.432861 -1.821836 0.760715 0.389457 -0.923313 0.780789 0.341393 -0.900485 1.167228 13.074740 4.234940 10.054560 19.163161 -5.633331 -0.000000 -0.000001 0.000001 1.158331 2.267329 -7.289355 -56.983315 6.017197 -48.902092 -0.000008 -112.794768 -0.000010 1.838340 -5.458645 -9.531900 0.255313 3.378218 -45.814348 5.654092 5.847758 -88.067462 2.162138 4.544816 -50.866376 -0.000000 0.000001 -0.000003 -6.141210 -11.690801 -6.761677 9.914124 42.595515 3.409834 -0.422809 8.108101 27.509118 -0.000001 0.000004 -0.000001 2.445661 11.483464 -6.136631 -58.657548 25.446061 82.239227 0.001106 96.548214 -0.001116 -11.817915 21.193592 8.196394 -7.341106 13.749654 7.412342 9.855746 -44.489093 -3.903282 -0.115780 -14.513083 -28.973861 -0.000002 -0.000002 0.000002 -0.124373 -2.384782 45.108857 4.500587 -4.654542 88.071164 1.723226 -3.618382 50.920112 0.000002 -0.000002 0.000001 -28.513048 7.976484 25.033227 51.674626 -8.733187 3.924525 -14.337235 -2.317042 -16.293049 -5.519978 0.220554 -4.285590 -0.000000 -0.000001 -0.000000 -31.502335 -5.462265 -32.925275 48.126630 -0.601269 -7.622749 -12.174234 -5.840518 23.176338 -0.013001 0.000010 0.000001 -0.000000 0.000000 -0.000000 
